<?xml version="1.0" encoding="UTF-8" standalone="no"?>
<!DOCTYPE svg PUBLIC "-//W3C//DTD SVG 1.1//EN"
"http://www.w3.org/Graphics/SVG/1.1/DTD/svg11.dtd">


<!-- Page 1 -->
<svg x="0" y="0" width="1338" height="817" viewBox="0 0 1338 817" version="1.1" xmlns="http://www.w3.org/2000/svg" xmlns:xlink="http://www.w3.org/1999/xlink"
style="display: block;margin-left: auto;margin-right: auto;">
<defs>
<clipPath id="c0_1"><path d="M0,817.4L0,0L1338.3,0l0,817.4Z" /></clipPath>

<style type="text/css"><![CDATA[

.g1_1{
fill: #FFFFFF;
fill-opacity: 0;
}
.g2_1{
fill: none;
stroke: #D9D9D9;
stroke-width: 1.5277778;
stroke-linecap: butt;
stroke-linejoin: round;
}
.g3_1{
fill: #5B9BD5;
}
.g4_1{
fill: #ED7D31;
}

.s1_1{
font-size: 38.19px;
font-family: DengXian-Regular_p;
fill: TRANSPARENT;
}
text::-moz-selection {
	color: transparent;
	background: rgba(0, 106, 173, 0.4);
}
text::selection {
	color: transparent;
	background: rgba(0, 106, 173, 0.4);
}

]]></style>

</defs>
<path d="M0,0
L0,817
L1338,817
L1338,0 Z " 
fill="#FFFFFF" stroke="none" />
<path d="M0,817.4l1338.3,0L1338.3,0L0,0L0,817.4Z" class="g1_1" />
<path d="M158.1,579.8l1161.1,0M158.1,489.7l1161.1,0M158.1,398l1161.1,0M158.1,307.8l1161.1,0M158.1,216.2l1161.1,0M158.1,124.5l1161.1,0M158.1,34.4l1161.1,0" class="g2_1" />
<path d="M252.1,94.7l87.1,0l0,576l-87.1,0ZM638.6,246l87.1,0l0,424.7l-87.1,0Zm388.1,45.8l87.1,0l0,378.9l-87.1,0Z" class="g3_1" />
<path d="M362.1,458.3l87.1,0l0,212.4l-87.1,0Zm388,0l87.1,0l0,212.4l-87.1,0Zm386.6,76.4l87.1,0l0,136l-87.1,0Z" class="g4_1" />
<path d="M158.1,671.5l1161.1,0" class="g2_1" />
<g clip-path="url(#c0_1)">
<g fill="#404040" >
<use xlink:href="#f0_c" transform="matrix(25,0,0,25,271.8,71.4)" />
<use xlink:href="#f0_7" transform="matrix(25,0,0,25,291.7,71.4)" />
<use xlink:href="#f0_h" transform="matrix(25,0,0,25,299.3,71.4)" />
<use xlink:href="#f0_c" transform="matrix(25,0,0,25,658.9,223)" />
<use xlink:href="#f0_7" transform="matrix(25,0,0,25,678.8,223)" />
<use xlink:href="#f0_c" transform="matrix(25,0,0,25,686.4,223)" />
</g>
<g fill="#C00000" >
<use xlink:href="#f1_5" transform="matrix(25,0,0,25,1032.2,268.5)" />
<use xlink:href="#f1_2" transform="matrix(25,0,0,25,1053.6,268.5)" />
<use xlink:href="#f1_3" transform="matrix(25,0,0,25,1062.8,268.5)" />
<use xlink:href="#f1_6" transform="matrix(25,0,0,25,1084.2,268.5)" />
</g>
<g fill="#404040" >
<use xlink:href="#f0_b" transform="matrix(25,0,0,25,382.3,435.3)" />
<use xlink:href="#f0_7" transform="matrix(25,0,0,25,402.1,435.3)" />
<use xlink:href="#f0_f" transform="matrix(25,0,0,25,409.8,435.3)" />
<use xlink:href="#f0_b" transform="matrix(25,0,0,25,769.4,435.3)" />
<use xlink:href="#f0_7" transform="matrix(25,0,0,25,789.2,435.3)" />
<use xlink:href="#f0_f" transform="matrix(25,0,0,25,796.9,435.3)" />
</g>
<g fill="#C00000" >
<use xlink:href="#f1_4" transform="matrix(25,0,0,25,1142.7,511.1)" />
<use xlink:href="#f1_2" transform="matrix(25,0,0,25,1164.1,511.1)" />
<use xlink:href="#f1_5" transform="matrix(25,0,0,25,1173.3,511.1)" />
<use xlink:href="#f1_6" transform="matrix(25,0,0,25,1194.7,511.1)" />
</g>
<g fill="#595959" >
<use xlink:href="#f0_b" transform="matrix(25,0,0,25,107.5,681.9)" />
<use xlink:href="#f0_b" transform="matrix(25,0,0,25,79.5,590.9)" />
<use xlink:href="#f0_7" transform="matrix(25,0,0,25,99.4,590.9)" />
<use xlink:href="#f0_b" transform="matrix(25,0,0,25,107,590.9)" />
<use xlink:href="#f0_b" transform="matrix(25,0,0,25,79.5,499.9)" />
<use xlink:href="#f0_7" transform="matrix(25,0,0,25,99.4,499.9)" />
<use xlink:href="#f0_e" transform="matrix(25,0,0,25,107,499.9)" />
<use xlink:href="#f0_b" transform="matrix(25,0,0,25,79.5,408.9)" />
<use xlink:href="#f0_7" transform="matrix(25,0,0,25,99.4,408.9)" />
<use xlink:href="#f0_h" transform="matrix(25,0,0,25,107,408.9)" />
<use xlink:href="#f0_c" transform="matrix(25,0,0,25,79.5,317.9)" />
<use xlink:href="#f0_7" transform="matrix(25,0,0,25,99.4,317.9)" />
<use xlink:href="#f0_a" transform="matrix(25,0,0,25,107,317.9)" />
<use xlink:href="#f0_c" transform="matrix(25,0,0,25,79.5,227)" />
<use xlink:href="#f0_7" transform="matrix(25,0,0,25,99.4,227)" />
<use xlink:href="#f0_d" transform="matrix(25,0,0,25,107,227)" />
<use xlink:href="#f0_c" transform="matrix(25,0,0,25,79.5,136)" />
<use xlink:href="#f0_7" transform="matrix(25,0,0,25,99.4,136)" />
<use xlink:href="#f0_g" transform="matrix(25,0,0,25,107,136)" />
<use xlink:href="#f0_d" transform="matrix(25,0,0,25,79.5,45)" />
<use xlink:href="#f0_7" transform="matrix(25,0,0,25,99.4,45)" />
<use xlink:href="#f0_9" transform="matrix(25,0,0,25,107,45)" />
<use xlink:href="#f0_j" transform="matrix(25,0,0,25,177.3,728.4)" />
<use xlink:href="#f0_v" transform="matrix(25,0,0,25,186.4,728.4)" />
<use xlink:href="#f0_p" transform="matrix(25,0,0,25,207.8,728.4)" />
<use xlink:href="#f0_q" transform="matrix(25,0,0,25,224.6,728.4)" />
<use xlink:href="#f0_x" transform="matrix(25,0,0,25,244.5,728.4)" />
<use xlink:href="#f0_10" transform="matrix(25,0,0,25,265.9,728.4)" />
<use xlink:href="#f0_s" transform="matrix(25,0,0,25,278.1,728.4)" />
<use xlink:href="#f0_w" transform="matrix(25,0,0,25,287.3,728.4)" />
</g>
</g>
<text 
x="265" 
y="728" 
dx="0,0.1" 
class="s1_1"
># </text>

<g clip-path="url(#c0_1)">
<g fill="#595959" >
<use xlink:href="#f0_v" transform="matrix(25,0,0,25,308.7,728.4)" />
<use xlink:href="#f0_6" transform="matrix(25,0,0,25,330.1,728.4)" />
<use xlink:href="#f0_m" transform="matrix(25,0,0,25,349.9,728.4)" />
<use xlink:href="#f0_q" transform="matrix(25,0,0,25,371.3,728.4)" />
<use xlink:href="#f0_z" transform="matrix(25,0,0,25,391.2,728.4)" />
<use xlink:href="#f0_k" transform="matrix(25,0,0,25,406.4,728.4)" />
<use xlink:href="#f0_q" transform="matrix(25,0,0,25,433.9,728.4)" />
</g>
</g>
<text 
x="391" 
y="728" 
dx="0,-0.2" 
class="s1_1"
>" </text>

<g clip-path="url(#c0_1)">
<g fill="#595959" >
<use xlink:href="#f0_10" transform="matrix(25,0,0,25,453.8,728.4)" />
<use xlink:href="#f0_6" transform="matrix(25,0,0,25,466,728.4)" />
<use xlink:href="#f0_12" transform="matrix(25,0,0,25,485.9,728.4)" />
<use xlink:href="#f0_a" transform="matrix(25,0,0,25,504.2,728.4)" />
<use xlink:href="#f0_m" transform="matrix(25,0,0,25,628.5,728.4)" />
<use xlink:href="#f0_q" transform="matrix(25,0,0,25,649.9,728.4)" />
</g>
</g>
<text 
x="453" 
y="728" 
dx="0,0.1,0.8,0.5" 
class="s1_1"
># % </text>

<g clip-path="url(#c0_1)">
<g fill="#595959" >
<use xlink:href="#f0_z" transform="matrix(25,0,0,25,669.8,728.4)" />
<use xlink:href="#f0_k" transform="matrix(25,0,0,25,685.1,728.4)" />
<use xlink:href="#f0_q" transform="matrix(25,0,0,25,712.6,728.4)" />
</g>
</g>
<text 
x="669" 
y="728" 
dx="0,-0.2" 
class="s1_1"
>" </text>

<g clip-path="url(#c0_1)">
<g fill="#595959" >
<use xlink:href="#f0_o" transform="matrix(25,0,0,25,732.4,728.4)" />
<use xlink:href="#f0_10" transform="matrix(25,0,0,25,753.8,728.4)" />
<use xlink:href="#f0_6" transform="matrix(25,0,0,25,766,728.4)" />
<use xlink:href="#f0_9" transform="matrix(25,0,0,25,785.9,728.4)" />
<use xlink:href="#f0_8" transform="matrix(25,0,0,25,805.8,728.4)" />
</g>
</g>
<text 
x="753" 
y="728" 
dx="0,0.1" 
class="s1_1"
># </text>

<g clip-path="url(#c0_1)">
<g fill="#595959" >
<use xlink:href="#f0_9" transform="matrix(25,0,0,25,825.6,728.4)" />
<use xlink:href="#f0_l" transform="matrix(25,0,0,25,1059.9,728.4)" />
<use xlink:href="#f0_w" transform="matrix(25,0,0,25,1081.3,728.4)" />
<use xlink:href="#f0_t" transform="matrix(25,0,0,25,1102.7,728.4)" />
<use xlink:href="#f0_13" transform="matrix(25,0,0,25,1111.9,728.4)" />
<use xlink:href="#f0_k" transform="matrix(25,0,0,25,1130.2,728.4)" />
<use xlink:href="#f0_q" transform="matrix(25,0,0,25,1157.7,728.4)" />
</g>
</g>
<text 
x="1111" 
y="728" 
dx="0,0.5" 
class="s1_1"
>&amp; </text>

<g clip-path="url(#c0_1)">
<g fill="#595959" >
<use xlink:href="#f0_10" transform="matrix(25,0,0,25,1177.6,728.4)" />
<use xlink:href="#f0_n" transform="matrix(0,-25,25,0,58.2,474.9)" />
</g>
</g>
<text 
x="1177" 
y="728" 
dx="0" 
class="s1_1"
>#</text>

<g clip-path="url(#c0_1)">
<g fill="#595959" >
<use xlink:href="#f0_w" transform="matrix(0,-25,25,0,58.2,455)" />
<use xlink:href="#f0_x" transform="matrix(0,-25,25,0,58.2,433.6)" />
<use xlink:href="#f0_6" transform="matrix(0,-25,25,0,58.2,412.2)" />
<use xlink:href="#f0_d" transform="matrix(0,-25,25,0,58.2,392.4)" />
<use xlink:href="#f0_i" transform="matrix(0,-25,25,0,58.2,361.8)" />
<use xlink:href="#f0_y" transform="matrix(0,-25,25,0,58.2,341.9)" />
<use xlink:href="#f0_y" transform="matrix(0,-25,25,0,58.2,329.7)" />
<use xlink:href="#f0_w" transform="matrix(0,-25,25,0,58.2,317.5)" />
<use xlink:href="#f0_y" transform="matrix(0,-25,25,0,58.2,296.1)" />
<use xlink:href="#f0_4" transform="matrix(0,-25,25,0,58.2,271.7)" />
<use xlink:href="#f0_3" transform="matrix(0,-25,25,0,58.2,261)" />
</g>
</g>
<text 
transform="matrix(0, -1, 1, 0, 58, 341)"
dx="0,-0.7,-0.7,-0.5,1.8" 
class="s1_1"
>!! ! </text>

<g clip-path="url(#c0_1)">
<g fill="#595959" >
<use xlink:href="#f0_5" transform="matrix(0,-25,25,0,58.2,241.1)" />
</g>
</g>
<path d="M456.8,788.3l16.8,0l0,-16.8l-16.8,0l0,16.8Z" class="g3_1" />
<g clip-path="url(#c0_1)">
<g fill="#595959" >
<use xlink:href="#f0_z" transform="matrix(25,0,0,25,482.5,796.7)" />
<use xlink:href="#f0_s" transform="matrix(25,0,0,25,497.8,796.7)" />
<use xlink:href="#f0_v" transform="matrix(25,0,0,25,506.9,796.7)" />
</g>
</g>
<text 
x="482" 
y="796" 
dx="0,-0.2" 
class="s1_1"
>" </text>

<g clip-path="url(#c0_1)">
<g fill="#595959" >
<use xlink:href="#f0_r" transform="matrix(25,0,0,25,528.3,796.7)" />
<use xlink:href="#f0_t" transform="matrix(25,0,0,25,549.7,796.7)" />
<use xlink:href="#f0_q" transform="matrix(25,0,0,25,558.9,796.7)" />
<use xlink:href="#f0_p" transform="matrix(25,0,0,25,587.9,796.7)" />
<use xlink:href="#f0_y" transform="matrix(25,0,0,25,604.7,796.7)" />
<use xlink:href="#f0_w" transform="matrix(25,0,0,25,616.9,796.7)" />
<use xlink:href="#f0_x" transform="matrix(25,0,0,25,638.3,796.7)" />
</g>
</g>
<text 
x="604" 
y="796" 
dx="0,-0.7" 
class="s1_1"
>! </text>

<path d="M699.7,788.3l18.4,0l0,-16.8l-18.4,0l0,16.8Z" class="g4_1" />
<g clip-path="url(#c0_1)">
<g fill="#595959" >
<use xlink:href="#f0_u" transform="matrix(25,0,0,25,725.9,796.7)" />
<use xlink:href="#f0_11" transform="matrix(25,0,0,25,757.9,796.7)" />
<use xlink:href="#f0_t" transform="matrix(25,0,0,25,779.3,796.7)" />
<use xlink:href="#f0_10" transform="matrix(25,0,0,25,788.5,796.7)" />
<use xlink:href="#f0_s" transform="matrix(25,0,0,25,800.7,796.7)" />
<use xlink:href="#f0_p" transform="matrix(25,0,0,25,819,796.7)" />
</g>
</g>
<text 
x="757" 
y="796" 
dx="0,0.3,0.6,0.1" 
class="s1_1"
>$ # </text>

<g clip-path="url(#c0_1)">
<g fill="#595959" >
<use xlink:href="#f0_y" transform="matrix(25,0,0,25,835.9,796.7)" />
<use xlink:href="#f0_w" transform="matrix(25,0,0,25,848.1,796.7)" />
<use xlink:href="#f0_x" transform="matrix(25,0,0,25,869.5,796.7)" />
</g>
</g>
<text 
x="835" 
y="796" 
dx="0,-0.7" 
class="s1_1"
>! </text>


<defs>
	<path d="M507.5,269.9l0,596.2L128.1,269.9Zm0,-329.4l0,251.1l-474.3,0l0,74.6L498.1,991.5l102.3,0l0,-721.6l142.7,0l0,-78.3l-142.7,0l0,-251.1Z" 
	id="f0_c"
	transform="scale(0.001,-0.001)" />

	<path d="M113.4,-59.5l0,128.9l107.6,0l0,-128.9Z" 
	id="f0_7"
	transform="scale(0.001,-0.001)" />

	<path d="M388.9,393.1c0,0,101.8,0,163.5,66c0,0,61.7,65.9,61.7,169.6c0,0,0,135.7,-61.7,217c0,0,-61.7,81.2,-161.9,81.2c0,0,-104,0,-161.2,-70c0,0,-57.2,-70.1,-57.2,-193.9c0,0,0,-127.5,57.6,-198.7c0,0,57.6,-71.2,159.2,-71.2Zm-22,-467.3c0,0,-218.4,0,-275,193.7l89.5,19.3c0,0,20.1,-68.5,68.9,-101.7c0,0,48.9,-33.2,119,-33.2c0,0,248.3,0,256.5,457.6c0,0,-30.6,-63.9,-98.9,-104.8c0,0,-68.3,-40.9,-156.4,-40.9c0,0,-134.3,0,-213.8,94.3c0,0,-79.5,94.4,-79.5,252.5c0,0,0,160.3,83.6,252.4c0,0,83.5,92.1,231.9,92.1c0,0,159.7,0,242.8,-129c0,0,83.2,-129,83.2,-389.3c0,0,0,-275.2,-89.5,-419.2c0,0,-89.4,-143.8,-262.3,-143.8Z" 
	id="f0_h"
	transform="scale(0.001,-0.001)" />

	<path d="M495.7,299.2l0,513.2L179.3,299.2Zm0,-358.7l0,219.9l-466.4,0l0,141L462.6,991.5l198.4,0l0,-692.3l153.5,0l0,-138.8l-153.5,0l0,-219.9Z" 
	id="f1_5"
	transform="scale(0.001,-0.001)" />

	<path d="M93.9,-59.5l0,195.4l179.9,0l0,-195.4Z" 
	id="f1_2"
	transform="scale(0.001,-0.001)" />

	<path d="M69.4,-59.5l0,119.9c0,0,37.3,86.5,106,170c0,0,68.6,83.6,183.5,179c0,0,138,114.8,182.4,177.5c0,0,44.4,62.6,44.4,121.5c0,0,0,76.1,-42.5,117.5c0,0,-42.6,41.4,-120.1,41.4c0,0,-149.3,0,-170.1,-160.4l-173.1,12c0,0,15.6,135.9,104.1,212c0,0,88.5,76.2,235.5,76.2c0,0,161.3,0,251.2,-76.5c0,0,90,-76.5,90,-216c0,0,0,-65.7,-25.7,-122.7c0,0,-25.8,-57.1,-74.4,-112.7c0,0,-48.5,-55.6,-158.3,-143.6c0,0,-191.1,-151.5,-238.2,-251.5l513.2,0l0,-143.6Z" 
	id="f1_3"
	transform="scale(0.001,-0.001)" />

	<path d="M408.3,-75.2c0,0,-146.5,0,-233.5,66.7c0,0,-87.1,66.7,-110.3,197.2l171.7,15.7c0,0,15,-57.6,36.6,-85.2c0,0,21.6,-27.7,56.7,-42.6c0,0,35.1,-15,85.9,-15c0,0,93.3,0,142.5,56.8c0,0,49.3,56.8,49.3,163.6c0,0,0,93.4,-47.7,147.2c0,0,-47.8,53.8,-133.5,53.8c0,0,-48.5,0,-86.6,-14.9c0,0,-38,-14.9,-77.5,-54.5l-164.1,0l33.6,577.9l593.1,0l0,-139.9l-442.6,0L264,560.2c0,0,77,62.6,201,62.6c0,0,148,0,233.6,-90.3c0,0,85.6,-90.3,85.6,-246.4c0,0,0,-168.8,-99.8,-265.1c0,0,-99.8,-96.2,-276.1,-96.2Z" 
	id="f1_6"
	transform="scale(0.001,-0.001)" />

	<path d="M395.4,-74.2c0,0,-297.5,0,-331.8,272l96.2,10.5c0,0,26.1,-202.4,235.7,-202.4c0,0,111.2,0,169.7,56.7c0,0,58.6,56.7,58.6,167.1c0,0,0,98.5,-69.8,150c0,0,-69.8,51.5,-195.9,51.5l-71.6,0l0,87l69.5,0c0,0,70.3,0,124.4,23.1c0,0,54.2,23.2,85.6,68.3c0,0,31.4,45.1,31.4,111.5c0,0,0,98.4,-51.9,152.1c0,0,-52,53.7,-152.8,53.7c0,0,-90.4,0,-147.6,-46.4c0,0,-57.2,-46.4,-66.9,-142.3l-94.1,8.2c0,0,14.2,124.4,95.9,192.5c0,0,81.8,68.2,213.1,68.2c0,0,142.6,0,221.4,-72.7c0,0,78.7,-72.8,78.7,-204.9c0,0,0,-96.3,-55.1,-162.3c0,0,-55.2,-66,-155.1,-87.7l0,-2.9c0,0,111.7,-14.2,174.7,-80.9c0,0,62.9,-66.7,62.9,-165.9c0,0,0,-144.6,-85,-224.3c0,0,-85,-79.7,-240.2,-79.7Z" 
	id="f0_b"
	transform="scale(0.001,-0.001)" />

	<path d="M279.6,-59.5c0,0,0,208.7,89.2,453.8c0,0,89.2,245,260.9,512.1l-550.5,0l0,85.1l645.3,0l0,-82.1c0,0,-180.2,-281.3,-263.9,-519.2c0,0,-83.8,-238,-83.8,-449.7Z" 
	id="f0_f"
	transform="scale(0.001,-0.001)" />

	<path d="M417.9,-75.2c0,0,-161.8,0,-255,73.5c0,0,-93.2,73.4,-111.1,219.7l173.7,15.7c0,0,11.9,-86.5,59.6,-127.8c0,0,47.7,-41.4,132.7,-41.4c0,0,88.6,0,135.6,45.5c0,0,47,45.5,47,129.7c0,0,0,77.5,-58.3,120.3c0,0,-58.2,42.8,-170.9,42.8l-76.9,0l0,142.8l73.2,0c0,0,100.8,0,154.6,42.1c0,0,53.8,42.1,53.8,120.3c0,0,0,80.5,-41.4,120.4c0,0,-41.3,39.9,-118.8,39.9c0,0,-153.6,0,-171.5,-155.5L74.3,725.5c0,0,15.7,134.1,106.6,207.8c0,0,91,73.8,237.1,73.8c0,0,159.5,0,245.2,-72.7c0,0,85.8,-72.7,85.8,-206.2c0,0,0,-94.7,-53.4,-160c0,0,-53.3,-65.3,-163.7,-88.4l0,-3c0,0,114.9,-12.6,180.2,-78.3c0,0,65.2,-65.7,65.2,-167.1c0,0,0,-149.3,-92.8,-228c0,0,-92.8,-78.6,-266.6,-78.6Z" 
	id="f1_4"
	transform="scale(0.001,-0.001)" />

	<path d="M414.2,4.9c0,0,102.4,0,159.9,73c0,0,57.5,73.1,57.5,200.5c0,0,0,121.5,-57.8,190.4c0,0,-57.9,69,-164.8,69c0,0,-59.7,0,-109.8,-27.6c0,0,-50,-27.6,-78.8,-79c0,0,-28.8,-51.4,-28.8,-119.3c0,0,0,-133.3,61.7,-220.2c0,0,61.6,-86.8,160.9,-86.8Zm2.2,-79.1c0,0,-160.2,0,-244.8,130.4c0,0,-84.6,130.5,-84.6,385.6c0,0,0,281.9,89.1,423.6c0,0,89.1,141.7,262.8,141.7c0,0,105.8,0,170,-45.9c0,0,64.1,-46,93.2,-143.2L611.8,797.9c0,0,-39.5,130,-179,130c0,0,-122.4,0,-186.9,-115.9c0,0,-64.5,-115.9,-66,-341.7c0,0,37.3,70,101.8,106.9c0,0,64.5,36.8,147.3,36.8c0,0,136.4,0,217,-88.3c0,0,80.5,-88.4,80.5,-241.3c0,0,0,-167.1,-83.5,-262.9c0,0,-83.5,-95.7,-226.6,-95.7Z" 
	id="f0_e"
	transform="scale(0.001,-0.001)" />

	<path d="M83.1,-59.5l0,67c0,0,34.3,86.6,99.5,172c0,0,65.3,85.5,191.2,195.2c0,0,129.8,111.9,181.6,188.8c0,0,51.8,76.9,51.8,161.2c0,0,0,97,-54.4,149.6c0,0,-54.4,52.6,-151.3,52.6c0,0,-88,0,-144.3,-52c0,0,-56.3,-52,-66,-142.5L95.8,744.3c0,0,11.2,118,94.3,190.4c0,0,83.1,72.4,212,72.4c0,0,142.4,0,222.2,-73.1c0,0,79.7,-73.1,79.7,-203.7c0,0,0,-67.2,-23.9,-126.1c0,0,-23.8,-59,-71.6,-117.5c0,0,-47.7,-58.6,-162.6,-160.8c0,0,-201.3,-179.1,-254.3,-301.4l528,0l0,-84Z" 
	id="f0_a"
	transform="scale(0.001,-0.001)" />

	<path d="M391.6,-74.2c0,0,-254.6,0,-304.6,235.2l94.9,15c0,0,23.1,-91.8,74.6,-130.9c0,0,51.6,-39.2,141.9,-39.2c0,0,111.3,0,171.8,70c0,0,60.5,70,60.5,199.5c0,0,0,111,-59.4,176.9c0,0,-59.3,65.9,-162.3,65.9c0,0,-60.4,0,-106.7,-18.2c0,0,-46.2,-18.3,-93.2,-60l-88.8,0l32.8,551.5l522.6,0l0,-80.2l-437.9,0L213.2,530.9c0,0,52.2,37.7,102.6,52.1c0,0,50.4,14.4,107.9,14.4c0,0,139.5,0,221.6,-86.1c0,0,82.2,-86.1,82.2,-232.2c0,0,0,-167,-88.5,-260.2c0,0,-88.4,-93.1,-247.4,-93.1Z" 
	id="f0_d"
	transform="scale(0.001,-0.001)" />

	<path d="M404.1,1c0,0,114,0,170.3,60.7l56.3,179.2c0,0,0,99.8,-59.7,156.8c0,0,-59.6,57,-170.6,57c0,0,-106.6,0,-167,-59.6c0,0,-60.3,-59.6,-60.3,-157.2c0,0,0,-114.7,59.2,-175.8C232.3,62.1,291.6,1,404.1,1Zm-2.7,529.9c0,0,99.8,0,152.3,53.8c0,0,52.5,53.8,52.5,152.4c0,0,0,97.1,-53.6,146.4c0,0,-53.6,49.3,-152.7,49.3c0,0,-98.3,0,-150.8,-50.4c0,0,-52.6,-50.4,-52.6,-145.3c0,0,0,-96.4,54,-151.3c0,0,54,-54.9,150.9,-54.9Zm1.3,-605.1c0,0,-154.9,0,-240.2,80.4c0,0,-85.3,80.4,-85.3,224.3c0,0,0,101.3,55.1,171.4c0,0,55.1,70,144.4,87.9l0,3c0,0,-80.9,21.6,-128.5,89.5c0,0,-47.5,68,-47.5,159.8c0,0,0,118.7,81.2,191.8c0,0,81.1,73.2,218.1,73.2c0,0,140.7,0,221.9,-73.5c0,0,81.1,-73.6,81.1,-193c0,0,0,-94.8,-48.7,-161.2c0,0,-48.8,-66.5,-129.2,-84.4l0,-2.9c0,0,92.2,-17.9,147.3,-86.1c0,0,55.1,-68.2,55.1,-174c0,0,0,-146.1,-84.2,-226.2c0,0,-84.2,-80,-240.6,-80Z" 
	id="f0_g"
	transform="scale(0.001,-0.001)" />

	<path d="M115.4,-59.5l0,80l268.9,0l0,873.2L143.7,734.3l0,85.7L394.4,991.5l82.8,0l0,-971l229.7,0l0,-80Z" 
	id="f0_9"
	transform="scale(0.001,-0.001)" />

	<path d="M138.8,-59.5l0,1051l99.8,0l0,-1051Z" 
	id="f0_j"
	transform="scale(0.001,-0.001)" />

	<path d="M123.2,-59.5l0,590.2c0,0,0,42.5,-1.7,84.7c0,0,-1.8,42.1,-3.2,84.7l84.8,0l9,-144.7l3,0c0,0,39.4,81.1,99.8,120.2c0,0,60.4,39.2,154.3,39.2c0,0,130.4,0,193.3,-75c0,0,63,-75,63,-231.7l0,-467.6l-94.8,0l0,444.6c0,0,0,132,-45.5,191.7c0,0,-45.4,59.7,-141.5,59.7c0,0,-103.5,0,-164.6,-75.7c0,0,-61.1,-75.7,-61.1,-204.8l0,-415.5Z" 
	id="f0_v"
	transform="scale(0.001,-0.001)" />

	<path d="M384.3,-74.2c0,0,-151.7,0,-230.8,100.2c0,0,-79.2,100.3,-79.2,291.2c0,0,0,190.2,82.5,293.9c0,0,82.6,103.7,234.2,103.7c0,0,120.2,0,188.6,-49.3c0,0,68.3,-49.3,86.3,-154.7l-98,-11.2c0,0,-14.2,71.1,-57.6,104c0,0,-43.3,32.9,-118.9,32.9c0,0,-221.3,0,-221.3,-315.5c0,0,0,-317.1,216.1,-317.1c0,0,159.3,0,185.4,144.7l94.3,-13.4c0,0,-39.6,-209.4,-281.6,-209.4Z" 
	id="f0_p"
	transform="scale(0.001,-0.001)" />

	<path d="M626.8,379.4c0,0,-13.5,257.1,-223.9,257.1c0,0,-104.5,0,-163.4,-65.2c0,0,-59,-65.2,-64.9,-191.9ZM409.3,-74.2c0,0,-161.9,0,-248.5,102.8c0,0,-86.5,102.9,-86.5,297.6c0,0,0,124.5,41,211.8c0,0,41.1,87.3,116,132c0,0,75,44.8,174.9,44.8c0,0,155.2,0,237.3,-99.3c0,0,82,-99.2,82,-285.1l0,-25.3l-552.4,0c0,0,0,-142.4,63,-221.8c0,0,63,-79.4,175.5,-79.4c0,0,75.3,0,129.4,30.9c0,0,54.1,31,93.6,104l75.3,-41c0,0,-52.2,-93.1,-125.3,-132.5c0,0,-73.1,-39.5,-175.3,-39.5Z" 
	id="f0_q"
	transform="scale(0.001,-0.001)" />

	<path d="M462.6,3.9c0,0,120.1,0,181.2,82.1c0,0,61.2,82,61.2,235.7c0,0,0,150.7,-58.2,232.8c0,0,-58.2,82,-176,82c0,0,-126.7,0,-190.5,-81.7c0,0,-63.8,-81.6,-63.8,-235.3c0,0,0,-154.4,61.9,-235c0,0,61.9,-80.6,184.2,-80.6ZM123.2,-353.8l0,892.8c0,0,0,80.5,-4.9,161.1l88.6,0c0,0,8.2,-80.3,8.2,-139.8l2.9,0c0,0,44.8,82.4,108.9,118.4c0,0,64.2,36.1,158.9,36.1c0,0,152.1,0,234.5,-101.5c0,0,82.5,-101.4,82.5,-290.1c0,0,0,-184.2,-88.4,-290.9c0,0,-88.4,-106.5,-243.5,-106.5c0,0,-90.3,0,-151.1,34.1c0,0,-60.7,34,-101.8,109.5l-2.9,0c0,0,1.4,-30.6,2.2,-61.2c0,0,0.7,-30.5,0.7,-62.6l0,-299.4Z" 
	id="f0_x"
	transform="scale(0.001,-0.001)" />

	<path d="M314.5,-71.3c0,0,-82.9,0,-125.8,44.1c0,0,-43,43.9,-43,129.7l0,519.4l-111.5,0l0,78.2l113,0l25.2,175l68.1,0l0,-175l203.3,0l0,-78.2l-203.3,0l0,-502.5c0,0,0,-53.8,21.8,-83.6c0,0,21.7,-29.9,77.9,-29.9c0,0,48.8,0,112.5,13.4l0,-73.5c0,0,-65,-17.1,-138.2,-17.1Z" 
	id="f0_10"
	transform="scale(0.001,-0.001)" />

	<path d="M123.2,-59.5l0,759.6l94.8,0l0,-759.6Zm0,969.8l0,115.4l94.8,0l0,-115.4Z" 
	id="f0_s"
	transform="scale(0.001,-0.001)" />

	<path d="M432.8,3.9c0,0,134.4,0,202.3,80.6c0,0,67.9,80.6,67.9,236.5c0,0,0,156.6,-65.7,236.1c0,0,-65.7,79.4,-195.5,79.4c0,0,-132.1,0,-200.4,-81.3c0,0,-68.3,-81.3,-68.3,-234.2c0,0,0,-150.7,67.5,-233.9c0,0,67.6,-83.2,192.2,-83.2Zm1.5,-78.1c0,0,-167.7,0,-263.8,106.2c0,0,-96.2,106.2,-96.2,289c0,0,0,185.7,96.2,289.7c0,0,96.1,104.1,268.3,104.1c0,0,177.4,0,270.2,-101.1c0,0,92.8,-101.1,92.8,-292.7c0,0,0,-185,-96.5,-290.1c0,0,-96.6,-105.1,-271,-105.1Z" 
	id="f0_w"
	transform="scale(0.001,-0.001)" />

	<path d="M165.2,278.7l0,85l433.2,0l0,-85Z" 
	id="f0_6"
	transform="scale(0.001,-0.001)" />

	<path d="M437,472.3c0,0,123.2,0,192.7,58.9c0,0,69.4,59,69.4,164.3c0,0,0,103.8,-69.8,159.8c0,0,-69.8,56,-198.3,56l-193.4,0l0,-439ZM137.9,-59.5l0,1051l303,0c0,0,171,0,265.5,-78.4c0,0,94.4,-78.3,94.4,-216.4c0,0,0,-117.8,-73.6,-196.2c0,0,-73.5,-78.3,-197.5,-95.5L836,-59.5l-118.8,0L428.1,393.1l-190.5,0l0,-452.6Z" 
	id="f0_m"
	transform="scale(0.001,-0.001)" />

	<path d="M306.4,-74.2c0,0,-119.4,0,-187.2,42.2c0,0,-67.9,42,-91.8,140.5l87.3,15.7c0,0,15.7,-61.7,60.1,-93C174.8,31.2,219.2,0,305.9,0C305.9,0,482,0,482,142.2c0,0,0,40.2,-16,65.5c0,0,-16.1,25.3,-44.1,41.3c0,0,-27.9,16,-66.4,26.8c0,0,-38.4,10.8,-83.2,22.8c0,0,-82.1,20.1,-123.5,45.8c0,0,-41.5,25.8,-63.8,64.6c0,0,-22.4,38.7,-22.4,94.7c0,0,0,100.7,61.9,155.9c0,0,61.9,55.2,182,55.2c0,0,108.9,0,168.9,-40.3c0,0,60.1,-40.2,81,-127.3L466.9,536.8c0,0,-12.7,55.5,-51.1,79.6c0,0,-38.4,24,-109.2,24c0,0,-76.8,0,-114.5,-33.1c0,0,-37.6,-33.1,-37.6,-93.4c0,0,0,-38.7,14.5,-61.8c0,0,14.6,-23.1,43.3,-39.1c0,0,28.7,-16,131.5,-43.6c0,0,100.7,-27.6,142.4,-54c0,0,41.8,-26.5,65.3,-65.7c0,0,23.4,-39.1,23.4,-99.5c0,0,0,-107.4,-70.5,-165.9c0,0,-70.4,-58.5,-198,-58.5Z" 
	id="f0_z"
	transform="scale(0.001,-0.001)" />

	<path d="M137.9,-59.5l0,1051l117.1,0L887.8,50.8c0,0,-8.2,105.1,-8.2,209.6l0,731.1l95.2,0l0,-1051l-122.3,0L225,874.3c0,0,6.7,-120.8,6.7,-193.9l0,-739.9Z" 
	id="f0_k"
	transform="scale(0.001,-0.001)" />

	<path d="M296.9,-59.5L4.9,700.1l101.5,0l195,-528.3c0,0,39.6,-111.1,50.8,-155.2c0,0,12.7,38.8,25.7,77.6c0,0,13.1,38.8,28,76.9l200.9,529l100.1,0L407.4,-59.5Z" 
	id="f0_12"
	transform="scale(0.001,-0.001)" />

	<path d="M7.8,-59.5L384,493.1L38.4,991.5l110.5,0L442.2,557.3L730.4,991.5l111.2,0L503.4,493.1L872.2,-59.5l-111.2,0L440,422.3L118.3,-59.5Z" 
	id="f0_o"
	transform="scale(0.001,-0.001)" />

	<path d="M406.7,5.9c0,0,122.4,0,181,115.9c0,0,58.6,115.9,58.6,344.7c0,0,0,240.8,-55.6,351.1c0,0,-55.6,110.3,-181,110.3c0,0,-129.8,0,-186.2,-110.7c0,0,-56.3,-110.7,-56.3,-350.7c0,0,0,-234.8,58.2,-347.7c0,0,58.2,-112.9,181.3,-112.9Zm-1.8,-80.1c0,0,-164.8,0,-248.7,135.6c0,0,-83.8,135.8,-83.8,405c0,0,0,273.7,81.6,407.2c0,0,81.6,133.5,256.1,133.5c0,0,167.8,0,249.4,-134.2c0,0,81.7,-134.3,81.7,-406.5c0,0,0,-263.3,-85,-402c0,0,-85.1,-138.6,-251.3,-138.6Z" 
	id="f0_8"
	transform="scale(0.001,-0.001)" />

	<path d="M410.7,442c0,0,126.8,0,195.9,62.3c0,0,69,62.3,69,176.4c0,0,0,109,-68.2,169.8c0,0,-68.4,60.8,-203.5,60.8l-160.4,0l0,-469.3ZM143.7,-59.5l0,1051l273.2,0c0,0,170.9,0,265.7,-82.1c0,0,94.7,-82,94.7,-227.4c0,0,0,-93.3,-42.5,-166c0,0,-42.6,-72.7,-122.9,-113c0,0,-80.2,-40.2,-189.2,-40.2l-179.2,0l0,-422.3Z" 
	id="f0_l"
	transform="scale(0.001,-0.001)" />

	<path d="M123.2,-59.5l0,1085.2l94.8,0L218,-59.5Z" 
	id="f0_t"
	transform="scale(0.001,-0.001)" />

	<path d="M117.5,-352.9c0,0,-35.8,0,-68.6,8.3l0,85.2c0,0,26.9,-7.4,57.5,-7.4c0,0,44,0,75.4,20.9c0,0,31.4,20.8,57.5,64.1c0,0,26.2,43.2,53.1,85L305.1,-64L4.9,700.1l101.4,0L275.7,253.4c0,0,56,-150,79.1,-225.3c0,0,17.9,50.7,35.8,100.3c0,0,17.9,49.6,37.3,100.3L606.2,700.1l100.7,0L382.4,-120.2c0,0,-52.2,-105.1,-113.8,-168.9c0,0,-61.6,-63.8,-151.1,-63.8Z" 
	id="f0_13"
	transform="scale(0.001,-0.001)" />

	<path d="M342.2,-59.5l0,964.9l-327.5,0l0,86.1l760.7,0l0,-86.1l-334.4,0l0,-964.9Z" 
	id="f0_n"
	transform="scale(0.001,-0.001)" />

	<path d="M137.9,-59.5l0,1051l547.5,0l0,-83.1l-447.8,0l0,-386.3l401.9,0l0,-83.1l-401.9,0l0,-415.5l478.1,0l0,-83Z" 
	id="f0_i"
	transform="scale(0.001,-0.001)" />

	<path d="M126.1,-59.5l0,571.5c0,0,0,60.5,-6.8,188.1l87.5,0c0,0,8.2,-82,8.2,-172.1l3,0c0,0,31.4,100.4,83.1,143.6c0,0,51.7,43.2,133.3,43.2c0,0,31.4,0,58.4,-6.8l0,-88c0,0,-28.5,6.8,-71.1,6.8c0,0,-94.4,0,-147.6,-80.3c0,0,-53.1,-80.2,-53.1,-220.4l0,-385.6Z" 
	id="f0_y"
	transform="scale(0.001,-0.001)" />

	<path d="M320.1,-353.8c0,0,-128.1,172.3,-185.5,327.1c0,0,-57.4,154.8,-57.4,364.4c0,0,0,206,55.9,358.2c0,0,55.9,152.2,187,329.8l88.6,0c0,0,-131.8,-179.1,-188.7,-333.2c0,0,-57,-154.1,-57,-356.3c0,0,0,-201.4,56.6,-355.4c0,0,56.6,-154.1,189.1,-334.6Z" 
	id="f0_4"
	transform="scale(0.001,-0.001)" />

	<path d="M589.9,-4.2c0,0,71.1,0,71.1,270.5c0,0,0,140.9,-13.9,205.8c0,0,-13.8,64.8,-56.4,64.8c0,0,-41.9,0,-57.2,-64.1c0,0,-15.4,-64.1,-15.4,-206.5c0,0,0,-138.6,15.4,-204.6c0,0,15.3,-65.9,56.4,-65.9Zm-0.7,-64.1c0,0,-137.5,0,-137.5,334.6c0,0,0,167,35.1,250.5c0,0,35.2,83.6,103.9,83.6c0,0,67.2,0,101.9,-83.9c0,0,34.8,-83.9,34.8,-250.2c0,0,0,-166.2,-36.6,-250.5c0,0,-36.7,-84.1,-101.6,-84.1ZM174.4,395c0,0,41.1,0,56.1,68.3c0,0,14.9,68.2,14.9,202.5c0,0,0,141,-13.8,205.9c0,0,-13.9,64.9,-55.7,64.9c0,0,-43.4,0,-58.4,-64.1c0,0,-14.9,-64.2,-14.9,-206.7c0,0,0,-141.7,15.3,-206.2c0,0,15.3,-64.6,56.5,-64.6ZM138.8,-59.5l417.8,1051l66.3,0L204.4,-59.5Zm34.8,389.6c0,0,-137.4,0,-137.4,335.7c0,0,0,167.1,35.1,250.3c0,0,35.1,83.2,104.6,83.2c0,0,66.4,0,101.2,-83.9c0,0,34.7,-84,34.7,-249.6c0,0,0,-166.3,-36.6,-251c0,0,-36.6,-84.7,-101.6,-84.7Z" 
	id="f0_3"
	transform="scale(0.001,-0.001)" />

	<path d="M37.2,-353.8c0,0,132.1,179,189.2,333.1c0,0,57.2,154,57.2,356.2c0,0,0,200,-56.8,354.4c0,0,-56.7,154.5,-189.6,335.8l88,0c0,0,131.4,-176.9,187.8,-330.6c0,0,56.3,-153.7,56.3,-359.6c0,0,0,-201.5,-55.6,-354.7c0,0,-55.6,-153.3,-188.5,-334.6Z" 
	id="f0_5"
	transform="scale(0.001,-0.001)" />

	<path d="M412.4,7.8c0,0,121.6,0,185.3,82.1c0,0,63.8,82,63.8,234.9c0,0,0,150.6,-62.6,231.2c0,0,-62.7,80.5,-180.5,80.5c0,0,-121.6,0,-183.4,-82c0,0,-61.9,-82,-61.9,-235.7c0,0,0,-151.4,60.7,-231.2c0,0,60.8,-79.8,178.6,-79.8Zm0.8,-361.6c0,0,-260.3,0,-309.6,189.1l94,17.2c0,0,36.5,-126.2,217,-126.2c0,0,245.4,0,245.4,230.2l0,65.7c0,0,0,17.2,0.4,32.9c0,0,0.3,15.7,1.1,32.9l-3,0c0,0,-43.3,-81.4,-110,-119.8c0,0,-66.8,-38.5,-165.3,-38.5c0,0,-147,0,-227.9,103.2c0,0,-81,103.2,-81,285.9c0,0,0,185.7,84.3,290.8c0,0,84.3,105.2,238.8,105.2c0,0,182.8,0,261.1,-152.6l3,0c0,0,0.7,49.2,8.2,137.9l90,0c0,0,-4.9,-76.1,-4.9,-173.8l0,-564.6c0,0,0,-131.3,-86.5,-223.4c0,0,-86.5,-92.1,-255.1,-92.1Z" 
	id="f0_r"
	transform="scale(0.001,-0.001)" />

	<path d="M123.2,-59.5l0,590.2c0,0,0,70.1,-4.9,169.4l84.8,0c0,0,6,-73.9,9,-144.7l3,0c0,0,37.2,81.1,93.9,120.2c0,0,56.7,39.2,145.4,39.2c0,0,95.5,0,150.7,-45.8c0,0,55.2,-45.9,71.6,-123.3l3.7,0c0,0,72.4,169.1,249.1,169.1c0,0,122.3,0,181.6,-73.1c0,0,59.3,-73.2,59.3,-233.6l0,-467.6l-94.8,0l0,444.6c0,0,0,135.8,-40.6,193.6c0,0,-40.6,57.8,-134.5,57.8c0,0,-96,0,-151.2,-73.5c0,0,-55.1,-73.5,-55.1,-186.9l0,-435.6l-94.8,0l0,444.6c0,0,0,133.5,-41,192.5c0,0,-41,58.9,-132.6,58.9c0,0,-91.6,0,-149.7,-74.2c0,0,-58.1,-74.3,-58.1,-194.4l0,-427.4Z" 
	id="f0_u"
	transform="scale(0.001,-0.001)" />

	<path d="M371.8,-74.2c0,0,-130.5,0,-193.4,74.5c0,0,-63,74.6,-63,231.3l0,468.5l94.8,0l0,-445.5c0,0,0,-132.8,45.5,-191.7c0,0,45.4,-59,141.5,-59c0,0,105.1,0,165.8,75.8c0,0,60.7,75.7,60.7,204l0,416.4l95.9,0l0,-590.3c0,0,0,-42.6,1.8,-84.7c0,0,1.7,-42.1,3.1,-84.6l-85.9,0L629.7,84.1l-3,0c0,0,-39.5,-81.1,-100.2,-119.6c0,0,-60.8,-38.7,-154.7,-38.7Z" 
	id="f0_11"
	transform="scale(0.001,-0.001)" />


</defs>

<!-- Any embedded fonts defined here -->
<style type="text/css" ><![CDATA[

@font-face {
	font-family: DengXian-Regular_p;
	src: url("fonts/DengXian-Regular_p.woff") format("woff");
}

]]></style>

</svg>
